<svg width="148" height="48" viewBox="0 0 148 48" fill="none" xmlns="http://www.w3.org/2000/svg">
<path fill-rule="evenodd" clip-rule="evenodd" d="M3.17157 26.8581C1.60947 25.296 1.60948 22.7633 3.17157 21.2012L19.5445 4.82831C21.1066 3.26621 23.6393 3.26621 25.2014 4.82831L41.5743 21.2012C43.1364 22.7633 43.1364 25.296 41.5743 26.8581L25.2014 43.231C23.6393 44.7931 21.1066 44.7931 19.5445 43.231L3.17157 26.8581ZM14.432 15.5004C14.432 14.6719 15.1036 14.0004 15.932 14.0004H28.932C29.7604 14.0004 30.432 14.6719 30.432 15.5004C30.432 16.3288 29.7604 17.0004 28.932 17.0004H15.932C15.1036 17.0004 14.432 16.3288 14.432 15.5004ZM11.9316 20.0005C11.1032 20.0005 10.4316 20.6721 10.4316 21.5005C10.4316 22.3289 11.1032 23.0005 11.9316 23.0005H32.9316C33.7601 23.0005 34.4316 22.3289 34.4316 21.5005C34.4316 20.6721 33.7601 20.0005 32.9316 20.0005H11.9316ZM10.4316 27.5005C10.4316 26.6721 11.1032 26.0005 11.9316 26.0005H32.9316C33.7601 26.0005 34.4316 26.6721 34.4316 27.5005C34.4316 28.3289 33.7601 29.0005 32.9316 29.0005H11.9316C11.1032 29.0005 10.4316 28.3289 10.4316 27.5005ZM15.9316 32.0005C15.1032 32.0005 14.4316 32.6721 14.4316 33.5005C14.4316 34.3289 15.1032 35.0005 15.9316 35.0005H28.9316C29.7601 35.0005 30.4316 34.3289 30.4316 33.5005C30.4316 32.6721 29.7601 32.0005 28.9316 32.0005H15.9316Z" fill="#F8F8F8"/>
<path d="M58.8828 39H55.0028V10.34H58.8828V39ZM68.4212 21.68C68.8612 21.1867 69.3279 20.74 69.8212 20.34C70.3145 19.94 70.8345 19.6 71.3812 19.32C71.9412 19.0267 72.5279 18.8067 73.1412 18.66C73.7679 18.5 74.4412 18.42 75.1612 18.42C76.2679 18.42 77.2412 18.6067 78.0812 18.98C78.9345 19.34 79.6412 19.86 80.2012 20.54C80.7745 21.2067 81.2079 22.0133 81.5012 22.96C81.7945 23.9067 81.9412 24.9533 81.9412 26.1V39H78.3612V26.1C78.3612 24.5667 78.0079 23.38 77.3012 22.54C76.6079 21.6867 75.5479 21.26 74.1212 21.26C73.0679 21.26 72.0812 21.5133 71.1612 22.02C70.2545 22.5267 69.4145 23.2133 68.6412 24.08V39H65.0612V18.74H67.2012C67.7079 18.74 68.0212 18.9867 68.1412 19.48L68.4212 21.68ZM98.3459 29.88C96.7059 29.9333 95.3059 30.0667 94.1459 30.28C92.9992 30.48 92.0592 30.7467 91.3259 31.08C90.6059 31.4133 90.0792 31.8067 89.7459 32.26C89.4259 32.7133 89.2659 33.22 89.2659 33.78C89.2659 34.3133 89.3526 34.7733 89.5259 35.16C89.6992 35.5467 89.9326 35.8667 90.2259 36.12C90.5326 36.36 90.8859 36.54 91.2859 36.66C91.6992 36.7667 92.1392 36.82 92.6059 36.82C93.2326 36.82 93.8059 36.76 94.3259 36.64C94.8459 36.5067 95.3326 36.32 95.7859 36.08C96.2526 35.84 96.6926 35.5533 97.1059 35.22C97.5326 34.8867 97.9459 34.5067 98.3459 34.08V29.88ZM86.8459 21.6C87.9659 20.52 89.1726 19.7133 90.4659 19.18C91.7592 18.6467 93.1926 18.38 94.7659 18.38C95.8992 18.38 96.9059 18.5667 97.7859 18.94C98.6659 19.3133 99.4059 19.8333 100.006 20.5C100.606 21.1667 101.059 21.9733 101.366 22.92C101.673 23.8667 101.826 24.9067 101.826 26.04V39H100.246C99.8992 39 99.6326 38.9467 99.4459 38.84C99.2592 38.72 99.1126 38.4933 99.0059 38.16L98.6059 36.24C98.0726 36.7333 97.5526 37.1733 97.0459 37.56C96.5392 37.9333 96.0059 38.2533 95.4459 38.52C94.8859 38.7733 94.2859 38.9667 93.6459 39.1C93.0192 39.2467 92.3192 39.32 91.5459 39.32C90.7592 39.32 90.0192 39.2133 89.3259 39C88.6326 38.7733 88.0259 38.44 87.5059 38C86.9992 37.56 86.5926 37.0067 86.2859 36.34C85.9926 35.66 85.8459 34.86 85.8459 33.94C85.8459 33.14 86.0659 32.3733 86.5059 31.64C86.9459 30.8933 87.6592 30.2333 88.6459 29.66C89.6326 29.0867 90.9192 28.62 92.5059 28.26C94.0926 27.8867 96.0392 27.6733 98.3459 27.62V26.04C98.3459 24.4667 98.0059 23.28 97.3259 22.48C96.6459 21.6667 95.6526 21.26 94.3459 21.26C93.4659 21.26 92.7259 21.3733 92.1259 21.6C91.5392 21.8133 91.0259 22.06 90.5859 22.34C90.1592 22.6067 89.7859 22.8533 89.4659 23.08C89.1592 23.2933 88.8526 23.4 88.5459 23.4C88.3059 23.4 88.0992 23.34 87.9259 23.22C87.7526 23.0867 87.6059 22.9267 87.4859 22.74L86.8459 21.6ZM125.775 39H122.215V21.72H111.775V33.88C111.775 34.7333 111.982 35.3667 112.395 35.78C112.809 36.1933 113.342 36.4 113.995 36.4C114.369 36.4 114.689 36.3533 114.955 36.26C115.235 36.1533 115.475 36.04 115.675 35.92C115.875 35.8 116.042 35.6933 116.175 35.6C116.322 35.4933 116.449 35.44 116.555 35.44C116.742 35.44 116.909 35.5533 117.055 35.78L118.095 37.48C117.482 38.0533 116.742 38.5067 115.875 38.84C115.009 39.16 114.115 39.32 113.195 39.32C111.595 39.32 110.362 38.8733 109.495 37.98C108.642 37.0867 108.215 35.8 108.215 34.12V21.72H105.775C105.562 21.72 105.382 21.66 105.235 21.54C105.089 21.4067 105.015 21.2067 105.015 20.94V19.52L108.335 19.08L109.155 12.84C109.195 12.64 109.282 12.48 109.415 12.36C109.562 12.2267 109.749 12.16 109.975 12.16H111.775V19.14H125.775V39ZM126.655 12.24C126.655 12.5867 126.582 12.9133 126.435 13.22C126.302 13.5133 126.115 13.7733 125.875 14C125.649 14.2267 125.382 14.4067 125.075 14.54C124.769 14.6733 124.442 14.74 124.095 14.74C123.749 14.74 123.422 14.6733 123.115 14.54C122.822 14.4067 122.562 14.2267 122.335 14C122.109 13.7733 121.929 13.5133 121.795 13.22C121.662 12.9133 121.595 12.5867 121.595 12.24C121.595 11.8933 121.662 11.5667 121.795 11.26C121.929 10.94 122.109 10.6667 122.335 10.44C122.562 10.2 122.822 10.0133 123.115 9.88C123.422 9.74667 123.749 9.68 124.095 9.68C124.442 9.68 124.769 9.74667 125.075 9.88C125.382 10.0133 125.649 10.2 125.875 10.44C126.115 10.6667 126.302 10.94 126.435 11.26C126.582 11.5667 126.655 11.8933 126.655 12.24ZM145.724 22.34C145.617 22.4867 145.51 22.6 145.404 22.68C145.297 22.76 145.15 22.8 144.964 22.8C144.764 22.8 144.544 22.72 144.304 22.56C144.064 22.3867 143.764 22.2 143.404 22C143.057 21.8 142.624 21.62 142.104 21.46C141.597 21.2867 140.97 21.2 140.224 21.2C139.224 21.2 138.344 21.38 137.584 21.74C136.824 22.0867 136.184 22.5933 135.664 23.26C135.157 23.9267 134.77 24.7333 134.504 25.68C134.25 26.6267 134.124 27.6867 134.124 28.86C134.124 30.0867 134.264 31.18 134.544 32.14C134.824 33.0867 135.217 33.8867 135.724 34.54C136.244 35.18 136.864 35.6733 137.584 36.02C138.317 36.3533 139.137 36.52 140.044 36.52C140.91 36.52 141.624 36.42 142.184 36.22C142.744 36.0067 143.204 35.7733 143.564 35.52C143.937 35.2667 144.244 35.04 144.484 34.84C144.737 34.6267 144.984 34.52 145.224 34.52C145.517 34.52 145.744 34.6333 145.904 34.86L146.904 36.16C146.464 36.7067 145.964 37.1733 145.404 37.56C144.844 37.9467 144.237 38.2733 143.584 38.54C142.944 38.7933 142.27 38.98 141.564 39.1C140.857 39.22 140.137 39.28 139.404 39.28C138.137 39.28 136.957 39.0467 135.864 38.58C134.784 38.1133 133.844 37.44 133.044 36.56C132.244 35.6667 131.617 34.5733 131.164 33.28C130.71 31.9867 130.484 30.5133 130.484 28.86C130.484 27.3533 130.69 25.96 131.104 24.68C131.53 23.4 132.144 22.3 132.944 21.38C133.757 20.4467 134.75 19.72 135.924 19.2C137.11 18.68 138.47 18.42 140.004 18.42C141.43 18.42 142.684 18.6533 143.764 19.12C144.857 19.5733 145.824 20.22 146.664 21.06L145.724 22.34Z" fill="#F8F8F8"/>
</svg>
